<svg width="1440" height="405" viewBox="0 0 1440 405" fill="none" xmlns="http://www.w3.org/2000/svg">
<path d="M1387 129.824L1308 79L1338.34 169L1387 129.824Z" fill="#C4C4C4"/>
<path d="M1333 152L1440 0V152H1333Z" fill="#FFD9D9"/>
<path d="M1215 206L1308 79L1359 206H1215Z" fill="#FFD9D9"/>
<path d="M101.337 211.362C49.5242 183.185 7.38716 135.162 1.64831e-05 105L1.77747e-05 201.411V248.808L1.57786e-05 355.452L0 372.149V391C20.5293 393.195 48.0871 391.853 69.2985 391.789C145.723 391.556 221.576 386.245 295.505 379.435C353.507 374.093 412.414 370.349 472.154 369.475C561.743 368.164 650.371 372.611 739.286 375.876C862.055 380.384 987.278 383.114 1108.17 392.896C1169.3 397.842 1232.79 398.294 1294.65 401.45C1312.29 402.35 1330.2 404.053 1348.05 404.172C1364.46 404.282 1381.28 403.069 1397.44 402.138C1408.63 401.494 1431.5 403.921 1440 405V393.669V376.403C1435 375.324 1423.93 372.72 1417.83 371.329C1395.69 366.288 1366.1 364.132 1341.97 360.561C1299.53 354.28 1260.8 347 1222.39 337.768C1187.2 329.309 1153.08 320.596 1118.48 311.805C1083.01 302.792 1048.97 291.812 1010.73 284.526C968.417 276.462 923.374 272.039 875.373 270.617C825.781 269.148 782.792 271.667 735.769 276.928C689.625 282.091 640.254 288.2 591.892 283.389C548.767 279.099 509.792 270.188 483.984 256.409C462.422 244.896 450.053 232.915 421.478 223.267C391.611 213.182 354.882 208.555 314.689 211.362C274.425 214.174 238.197 222.325 199.108 226.617C168.389 229.99 123.228 223.267 101.337 211.362Z" fill="#158652" fill-opacity="0.8"/>
<path d="M0 196V335.5C2.13642e-05 365.5 29.5 340.643 92.1678 335.707C152.823 330.929 214.424 327.581 276.897 326.799C370.585 325.626 463.266 329.603 556.249 332.523C684.634 336.555 815.585 338.997 942.007 347.745C1005.93 352.168 1072.33 352.572 1137.02 355.395C1155.46 356.2 1225.34 356.893 1244 357V325C1244 318.827 1226.88 325.244 1220.49 324C1196.98 319.42 1211.73 322.021 1186.5 318.827C1142.12 313.21 1101.61 306.699 1061.45 298.443C1024.65 290.878 988.974 283.085 952.79 275.224C915.692 267.164 880.098 257.343 840.114 250.827C795.86 243.616 748.758 239.66 698.561 238.388C646.701 237.075 601.745 239.328 552.571 244.033C504.316 248.65 452.686 254.114 402.113 249.811C357.015 245.974 316.257 238.005 289.269 225.682C266.72 215.386 253.785 204.671 223.903 196.042C192.67 187.023 154.261 182.885 112.229 185.396C70.123 187.91 40.8779 192.162 0 196Z" fill="#18AF6A" fill-opacity="0.8"/>
<path d="M1440 133C1182.5 156.371 602.5 392.042 0 268.254V405H1440V133Z" fill="#8BD7B1"/>
<path d="M1440 227.749C1416.2 206.039 602.5 395.337 0 303.025V405H1440V227.749Z" fill="#F1F1F1"/>
</svg>
