<svg width="763" height="452" viewBox="0 0 763 452" fill="none" xmlns="http://www.w3.org/2000/svg">
<g filter="url(#filter0_b)">
<circle cx="102" cy="63" r="54" fill="#F3F3F3" fill-opacity="0.54"/>
<circle cx="54" cy="253" r="54" fill="#EAEAEA" fill-opacity="0.49"/>
<path d="M79.0521 55.77V66.264H86.4681V55.77H79.0521ZM85.0281 56.958V65.094H80.4921V56.958H85.0281ZM89.8521 54.186V70.368H91.3281V54.186H89.8521ZM104.197 62.07C101.857 61.242 100.273 59.208 100.273 57.138V56.49H103.819V55.284H95.1967V56.49H98.7967V57.138C98.7967 59.424 97.1227 61.584 94.7287 62.43L95.5027 63.6C97.3927 62.898 98.8687 61.422 99.5527 59.568C100.273 61.242 101.659 62.574 103.459 63.222L104.197 62.07ZM97.1767 65.922H106.483V70.35H107.977V64.734H97.1767V65.922ZM106.483 54.186V58.398H103.333V59.604H106.483V63.852H107.977V54.186H106.483ZM122.465 59.982H114.617V57.894H122.465V59.982ZM123.923 54.69H122.465V56.76H114.617V54.69H113.159V61.152H123.923V54.69ZM114.527 65.58H113.069V69.972H124.229V68.766H114.527V65.58ZM111.197 62.718V63.906H117.911V67.038H119.387V63.906H125.867V62.718H111.197Z" fill="black"/>
<circle cx="444" cy="64" r="54" fill="#F3F3F3" fill-opacity="0.54"/>
<path d="M421.772 59.416C421.772 57.958 422.924 56.95 424.526 56.95C426.11 56.95 427.262 57.958 427.262 59.416C427.262 60.856 426.11 61.882 424.526 61.882C422.924 61.882 421.772 60.856 421.772 59.416ZM431.924 58.3V60.46H428.522C428.612 60.136 428.666 59.776 428.666 59.416C428.666 59.02 428.612 58.642 428.504 58.3H431.924ZM431.924 61.63V63.466H433.4V55.186H431.924V57.13H427.856C427.118 56.266 425.93 55.744 424.526 55.744C422.114 55.744 420.368 57.238 420.368 59.416C420.368 61.558 422.114 63.07 424.526 63.07C425.966 63.088 427.154 62.53 427.91 61.63H431.924ZM424.49 69.946V68.182H433.4V64.294H422.996V65.464H431.942V67.066H423.032V71.116H434.012V69.946H424.49ZM439.177 66.796H448.483V71.35H449.977V65.59H439.177V66.796ZM445.045 61.18C445.153 60.802 445.225 60.406 445.225 59.956C445.225 59.524 445.153 59.128 445.045 58.75H448.483V61.18H445.045ZM441.067 62.602C439.501 62.602 438.331 61.504 438.331 59.956C438.331 58.444 439.501 57.346 441.067 57.346C442.651 57.346 443.821 58.444 443.821 59.956C443.821 61.504 442.651 62.602 441.067 62.602ZM448.483 55.204V57.562H444.415C443.659 56.644 442.471 56.086 441.067 56.086C438.691 56.086 436.927 57.688 436.927 59.956C436.927 62.242 438.691 63.862 441.067 63.862C442.471 63.862 443.641 63.304 444.397 62.386H448.483V64.708H449.977V55.186L448.483 55.204ZM462.809 56.896H458.777V55.096H457.301V56.896H453.287V58.084H462.809V56.896ZM455.591 61.828C455.591 60.766 456.563 60.064 458.039 60.064C459.515 60.064 460.505 60.766 460.505 61.828C460.505 62.908 459.515 63.61 458.039 63.61C456.563 63.61 455.591 62.908 455.591 61.828ZM461.909 61.828C461.909 60.064 460.343 58.912 458.039 58.912C455.753 58.912 454.187 60.064 454.187 61.828C454.187 63.61 455.753 64.744 458.039 64.744C460.343 64.744 461.909 63.61 461.909 61.828ZM455.285 67.372H464.285V71.35H465.761V66.166H455.285V67.372ZM468.155 59.65H465.761V55.204H464.285V65.284H465.761V60.874H468.155V59.65Z" fill="black"/>
<circle cx="552" cy="171" r="54" fill="#F3F3F3" fill-opacity="0.54"/>
<path d="M528.905 166.65V167.856H532.145V174.03H533.639V162.204H532.145V166.65H528.905ZM529.859 170.448C527.519 169.62 525.935 167.604 525.935 165.498V164.706H529.481V163.5H520.859V164.706H524.459V165.516C524.459 167.802 522.785 169.944 520.391 170.808L521.165 171.96C523.055 171.276 524.531 169.782 525.233 167.946C525.935 169.602 527.321 170.952 529.121 171.6L529.859 170.448ZM524.801 176.766V172.986H523.307V177.972H534.089V176.766H524.801ZM542.331 165.066H545.913V163.842H537.183V165.066H540.873V167.118C540.873 169.854 538.929 172.914 536.625 174.066L537.489 175.236C539.307 174.3 540.873 172.248 541.611 169.89C542.349 172.05 543.861 173.94 545.661 174.84L546.507 173.652C544.167 172.554 542.331 169.692 542.331 167.118V165.066ZM551.979 168.702H549.315V162.204H547.839V178.332H549.315V169.944H551.979V168.702ZM554.408 163.932V165.12H560.474C560.168 168.954 558.008 172.05 553.67 174.12L554.462 175.326C559.826 172.698 561.968 168.594 561.968 163.932H554.408ZM565.226 162.186V178.332H566.702V162.186H565.226ZM579.589 163.896H575.557V162.096H574.081V163.896H570.067V165.084H579.589V163.896ZM572.371 168.828C572.371 167.766 573.343 167.064 574.819 167.064C576.295 167.064 577.285 167.766 577.285 168.828C577.285 169.908 576.295 170.61 574.819 170.61C573.343 170.61 572.371 169.908 572.371 168.828ZM578.689 168.828C578.689 167.064 577.123 165.912 574.819 165.912C572.533 165.912 570.967 167.064 570.967 168.828C570.967 170.61 572.533 171.744 574.819 171.744C577.123 171.744 578.689 170.61 578.689 168.828ZM572.065 174.372H581.065V178.35H582.541V173.166H572.065V174.372ZM584.935 166.65H582.541V162.204H581.065V172.284H582.541V167.874H584.935V166.65Z" fill="black"/>
<circle cx="353" cy="388" r="54" fill="#F3F3F3" fill-opacity="0.54"/>
<path d="M332.344 379.186H330.868V387.466H332.344V379.186ZM320.896 383.362C320.896 381.958 322.066 380.968 323.632 380.968C325.216 380.968 326.368 381.958 326.368 383.362C326.368 384.748 325.216 385.738 323.632 385.738C322.066 385.738 320.896 384.748 320.896 383.362ZM327.808 383.362C327.808 381.22 326.044 379.762 323.632 379.762C321.22 379.762 319.474 381.22 319.474 383.362C319.474 385.486 321.22 386.926 323.632 386.926C326.044 386.926 327.808 385.486 327.808 383.362ZM323.38 393.946V392.164H332.344V388.258H321.886V389.428H330.886V391.066H321.922V395.116H332.884V393.946H323.38ZM342.35 387.16H337.778V384.208H342.35V387.16ZM343.79 380.356H342.35V383.056H337.778V380.356H336.32V388.348H343.79V380.356ZM339.614 389.914H338.138V394.972H348.902V393.766H339.614V389.914ZM348.182 384.082V379.204H346.706V391.048H348.182V385.324H350.558V384.082H348.182ZM366.433 381.148H362.365V379.204H360.889V381.148H356.785V382.318H366.433V381.148ZM359.215 386.26C359.215 385.144 360.187 384.406 361.627 384.406C363.067 384.406 364.039 385.144 364.039 386.26C364.039 387.376 363.067 388.096 361.627 388.096C360.187 388.096 359.215 387.376 359.215 386.26ZM362.365 389.212C364.219 388.978 365.443 387.862 365.443 386.26C365.443 384.442 363.877 383.272 361.627 383.272C359.377 383.272 357.811 384.442 357.811 386.26C357.811 387.862 359.035 388.978 360.889 389.212V390.976C359.323 391.03 357.811 391.03 356.515 391.03L356.713 392.272C359.539 392.272 363.337 392.236 366.793 391.624L366.703 390.526C365.317 390.742 363.823 390.85 362.365 390.922V389.212ZM371.653 386.044H369.133V379.186H367.657V395.332H369.133V387.286H371.653V386.044ZM382.83 380.896H378.798V379.096H377.322V380.896H373.308V382.084H382.83V380.896ZM375.612 385.828C375.612 384.766 376.584 384.064 378.06 384.064C379.536 384.064 380.526 384.766 380.526 385.828C380.526 386.908 379.536 387.61 378.06 387.61C376.584 387.61 375.612 386.908 375.612 385.828ZM381.93 385.828C381.93 384.064 380.364 382.912 378.06 382.912C375.774 382.912 374.208 384.064 374.208 385.828C374.208 387.61 375.774 388.744 378.06 388.744C380.364 388.744 381.93 387.61 381.93 385.828ZM375.306 391.372H384.306V395.35H385.782V390.166H375.306V391.372ZM388.176 383.65H385.782V379.204H384.306V389.284H385.782V384.874H388.176V383.65Z" fill="black"/>
<circle cx="580" cy="398" r="54" fill="#F3F3F3" fill-opacity="0.54"/>
<path d="M553.368 391.022C555.834 391.022 557.508 391.922 557.508 393.344C557.508 394.766 555.834 395.684 553.368 395.684C550.92 395.684 549.246 394.766 549.246 393.344C549.246 391.922 550.92 391.022 553.368 391.022ZM553.368 396.872C556.734 396.872 559.02 395.504 559.02 393.344C559.02 391.184 556.734 389.834 553.368 389.834C550.02 389.834 547.734 391.184 547.734 393.344C547.734 395.504 550.02 396.872 553.368 396.872ZM560.712 398.384H546.096V399.59H549.858V405.332H551.352V399.59H555.402V405.332H556.896V399.59H560.712V398.384ZM563.608 390.932V392.12H569.674C569.368 395.954 567.208 399.05 562.87 401.12L563.662 402.326C569.026 399.698 571.168 395.594 571.168 390.932H563.608ZM574.426 389.186V405.332H575.902V389.186H574.426ZM593.433 391.148H589.365V389.204H587.889V391.148H583.785V392.318H593.433V391.148ZM586.215 396.26C586.215 395.144 587.187 394.406 588.627 394.406C590.067 394.406 591.039 395.144 591.039 396.26C591.039 397.376 590.067 398.096 588.627 398.096C587.187 398.096 586.215 397.376 586.215 396.26ZM589.365 399.212C591.219 398.978 592.443 397.862 592.443 396.26C592.443 394.442 590.877 393.272 588.627 393.272C586.377 393.272 584.811 394.442 584.811 396.26C584.811 397.862 586.035 398.978 587.889 399.212V400.976C586.323 401.03 584.811 401.03 583.515 401.03L583.713 402.272C586.539 402.272 590.337 402.236 593.793 401.624L593.703 400.526C592.317 400.742 590.823 400.85 589.365 400.922V399.212ZM598.653 396.044H596.133V389.186H594.657V405.332H596.133V397.286H598.653V396.044ZM609.83 390.896H605.798V389.096H604.322V390.896H600.308V392.084H609.83V390.896ZM602.612 395.828C602.612 394.766 603.584 394.064 605.06 394.064C606.536 394.064 607.526 394.766 607.526 395.828C607.526 396.908 606.536 397.61 605.06 397.61C603.584 397.61 602.612 396.908 602.612 395.828ZM608.93 395.828C608.93 394.064 607.364 392.912 605.06 392.912C602.774 392.912 601.208 394.064 601.208 395.828C601.208 397.61 602.774 398.744 605.06 398.744C607.364 398.744 608.93 397.61 608.93 395.828ZM602.306 401.372H611.306V405.35H612.782V400.166H602.306V401.372ZM615.176 393.65H612.782V389.204H611.306V399.284H612.782V394.874H615.176V393.65Z" fill="black"/>
<circle cx="655" cy="253" r="54" fill="#F3F3F3" fill-opacity="0.54"/>
<path d="M625.083 248.938C625.083 247.426 626.235 246.382 627.855 246.382C629.457 246.382 630.627 247.426 630.627 248.938C630.627 250.45 629.457 251.512 627.855 251.512C626.235 251.512 625.083 250.45 625.083 248.938ZM632.067 248.938C632.067 246.706 630.285 245.158 627.855 245.158C625.407 245.158 623.643 246.706 623.643 248.938C623.643 251.188 625.407 252.754 627.855 252.754C630.285 252.754 632.067 251.188 632.067 248.938ZM630.735 259.144C628.341 259.144 626.883 258.442 626.883 257.29C626.883 256.12 628.341 255.436 630.735 255.436C633.111 255.436 634.569 256.12 634.569 257.29C634.569 258.442 633.111 259.144 630.735 259.144ZM630.735 254.266C627.459 254.266 625.407 255.364 625.407 257.29C625.407 259.198 627.459 260.314 630.735 260.314C633.993 260.314 636.045 259.198 636.045 257.29C636.045 255.364 633.993 254.266 630.735 254.266ZM638.223 247.804V246.598H635.883V244.204H634.407V253.762H635.883V251.26H638.223V250.036H635.883V247.804H638.223ZM645.331 247.066H648.913V245.842H640.183V247.066H643.873V249.118C643.873 251.854 641.929 254.914 639.625 256.066L640.489 257.236C642.307 256.3 643.873 254.248 644.611 251.89C645.349 254.05 646.861 255.94 648.661 256.84L649.507 255.652C647.167 254.554 645.331 251.692 645.331 249.118V247.066ZM654.979 250.702H652.315V244.204H650.839V260.332H652.315V251.944H654.979V250.702ZM658.956 255.796H668.262V260.35H669.756V254.59H658.956V255.796ZM664.824 250.18C664.932 249.802 665.004 249.406 665.004 248.956C665.004 248.524 664.932 248.128 664.824 247.75H668.262V250.18H664.824ZM660.846 251.602C659.28 251.602 658.11 250.504 658.11 248.956C658.11 247.444 659.28 246.346 660.846 246.346C662.43 246.346 663.6 247.444 663.6 248.956C663.6 250.504 662.43 251.602 660.846 251.602ZM668.262 244.204V246.562H664.194C663.438 245.644 662.25 245.086 660.846 245.086C658.47 245.086 656.706 246.688 656.706 248.956C656.706 251.242 658.47 252.862 660.846 252.862C662.25 252.862 663.42 252.304 664.176 251.386H668.262V253.708H669.756V244.186L668.262 244.204ZM682.589 245.896H678.557V244.096H677.081V245.896H673.067V247.084H682.589V245.896ZM675.371 250.828C675.371 249.766 676.343 249.064 677.819 249.064C679.295 249.064 680.285 249.766 680.285 250.828C680.285 251.908 679.295 252.61 677.819 252.61C676.343 252.61 675.371 251.908 675.371 250.828ZM681.689 250.828C681.689 249.064 680.123 247.912 677.819 247.912C675.533 247.912 673.967 249.064 673.967 250.828C673.967 252.61 675.533 253.744 677.819 253.744C680.123 253.744 681.689 252.61 681.689 250.828ZM675.065 256.372H684.065V260.35H685.541V255.166H675.065V256.372ZM687.935 248.65H685.541V244.204H684.065V254.284H685.541V249.874H687.935V248.65Z" fill="black"/>
<circle cx="709" cy="96" r="54" fill="#F3F3F3" fill-opacity="0.54"/>
<path d="M688.731 90.408C688.731 92.352 688.731 94.62 688.119 97.716L689.595 97.878C690.207 94.62 690.207 92.406 690.207 90.408V88.806H678.885V90.012H688.731V90.408ZM684.501 99.858V94.08H683.025V99.858H677.355V101.064H691.953V99.858H684.501ZM702.463 91.65V92.856H705.703V99.03H707.197V87.204H705.703V91.65H702.463ZM703.417 95.448C701.077 94.62 699.493 92.604 699.493 90.498V89.706H703.039V88.5H694.417V89.706H698.017V90.516C698.017 92.802 696.343 94.944 693.949 95.808L694.723 96.96C696.613 96.276 698.089 94.782 698.791 92.946C699.493 94.602 700.879 95.952 702.679 96.6L703.417 95.448ZM698.359 101.766V97.986H696.865V102.972H707.647V101.766H698.359ZM712.956 98.796H722.262V103.35H723.756V97.59H712.956V98.796ZM718.824 93.18C718.932 92.802 719.004 92.406 719.004 91.956C719.004 91.524 718.932 91.128 718.824 90.75H722.262V93.18H718.824ZM714.846 94.602C713.28 94.602 712.11 93.504 712.11 91.956C712.11 90.444 713.28 89.346 714.846 89.346C716.43 89.346 717.6 90.444 717.6 91.956C717.6 93.504 716.43 94.602 714.846 94.602ZM722.262 87.204V89.562H718.194C717.438 88.644 716.25 88.086 714.846 88.086C712.47 88.086 710.706 89.688 710.706 91.956C710.706 94.242 712.47 95.862 714.846 95.862C716.25 95.862 717.42 95.304 718.176 94.386H722.262V96.708H723.756V87.186L722.262 87.204ZM736.589 88.896H732.557V87.096H731.081V88.896H727.067V90.084H736.589V88.896ZM729.371 93.828C729.371 92.766 730.343 92.064 731.819 92.064C733.295 92.064 734.285 92.766 734.285 93.828C734.285 94.908 733.295 95.61 731.819 95.61C730.343 95.61 729.371 94.908 729.371 93.828ZM735.689 93.828C735.689 92.064 734.123 90.912 731.819 90.912C729.533 90.912 727.967 92.064 727.967 93.828C727.967 95.61 729.533 96.744 731.819 96.744C734.123 96.744 735.689 95.61 735.689 93.828ZM729.065 99.372H738.065V103.35H739.541V98.166H729.065V99.372ZM741.935 91.65H739.541V87.204H738.065V97.284H739.541V92.874H741.935V91.65Z" fill="black"/>
<path d="M50.2034 246.264H51.6974V234.204H50.2034V237.984H46.6754V239.208H50.2034V246.264ZM47.8274 242.448C45.5054 241.584 43.9214 239.46 43.9214 237.21V235.158H42.4454V237.156C42.4454 239.622 40.8254 241.908 38.4134 242.79L39.1874 243.96C41.0774 243.204 42.5174 241.674 43.2014 239.748C43.8854 241.494 45.2714 242.88 47.0534 243.582L47.8274 242.448ZM42.7874 248.766V244.932H41.3114V249.972H52.0754V248.766H42.7874ZM66.762 241.206H64.026V242.412H66.762V244.608H68.256V234.186H66.762V238.074H64.044V239.262H66.762V241.206ZM64.026 235.968H60.318V234.042H58.842V235.968H54.99V237.156H64.026V235.968ZM57.294 240.972C57.294 239.856 58.212 239.118 59.562 239.118C60.912 239.118 61.83 239.856 61.83 240.972C61.83 242.106 60.912 242.844 59.562 242.844C58.212 242.844 57.294 242.106 57.294 240.972ZM63.216 240.972C63.216 239.172 61.704 237.984 59.562 237.984C57.402 237.984 55.908 239.172 55.908 240.972C55.908 242.79 57.402 243.978 59.562 243.978C61.704 243.978 63.216 242.79 63.216 240.972ZM62.964 249.18C60.588 249.18 59.112 248.586 59.112 247.56C59.112 246.516 60.588 245.94 62.964 245.94C65.34 245.94 66.798 246.516 66.798 247.56C66.798 248.586 65.34 249.18 62.964 249.18ZM62.964 244.806C59.616 244.806 57.582 245.796 57.582 247.56C57.582 249.306 59.616 250.314 62.964 250.314C66.294 250.314 68.328 249.306 68.328 247.56C68.328 245.796 66.294 244.806 62.964 244.806ZM40.4294 258.354H44.9834V257.148H38.9714V267.354H40.0334C42.4454 267.354 44.0834 267.282 46.0094 266.868L45.8834 265.644C44.1194 266.022 42.5894 266.112 40.4294 266.13V258.354ZM50.6894 255.186V261.666H48.4034V255.546H47.0174V270.522H48.4034V262.872H50.6894V271.332H52.1114V255.186H50.6894ZM68.85 261.342C65.916 260.91 63.036 258.912 63.036 256.662V255.762H61.488V256.662C61.488 258.966 58.644 260.91 55.71 261.342L56.304 262.53C58.824 262.098 61.254 260.712 62.262 258.75C63.306 260.694 65.736 262.098 68.238 262.53L68.85 261.342ZM69.552 264.276H54.972V265.5H61.488V271.35H62.964V265.5H69.57L69.552 264.276Z" fill="black"/>
<circle cx="264" cy="247" r="54" fill="#EAEAEA" fill-opacity="0.57"/>
<path d="M249.515 240.48H259.217V244.332H260.693V239.292H249.515V240.48ZM251.279 231.552H259.127V233.424H251.279V231.552ZM255.941 236.52V234.594H260.585V228.564H259.127V230.4H251.279V228.564H249.821V234.594H254.465V236.52H247.877V237.726H262.493V236.52H255.941ZM274.03 229.842H269.998V228.024H268.522V229.842H264.508V231.03H274.03V229.842ZM266.812 234.612C266.812 233.568 267.784 232.902 269.26 232.902C270.736 232.902 271.726 233.568 271.726 234.612C271.726 235.674 270.736 236.322 269.26 236.322C267.784 236.322 266.812 235.674 266.812 234.612ZM273.13 234.612C273.13 232.902 271.564 231.804 269.26 231.804C266.956 231.804 265.408 232.902 265.408 234.612C265.408 236.34 266.956 237.438 269.26 237.438C271.564 237.438 273.13 236.34 273.13 234.612ZM275.524 242.928H268.288V241.146H275.524V242.928ZM275.524 239.994H268.288V238.284H266.83V244.116H276.982V238.284H275.524V239.994ZM279.376 232.29H276.982V228.186H275.506V237.564H276.982V233.532H279.376V232.29ZM240.382 251.382C240.382 252.642 240.382 253.83 239.95 255.486L241.39 255.648C241.84 253.992 241.84 252.678 241.84 251.382V250.014H230.842V251.202H240.382V251.382ZM236.332 264.162C233.812 264.162 232.192 263.478 232.192 262.362C232.192 261.21 233.812 260.526 236.332 260.526C238.87 260.526 240.49 261.21 240.49 262.362C240.49 263.478 238.87 264.162 236.332 264.162ZM236.332 259.392C232.894 259.392 230.716 260.49 230.716 262.362C230.716 264.198 232.894 265.314 236.332 265.314C239.77 265.314 241.966 264.198 241.966 262.362C241.966 260.49 239.77 259.392 236.332 259.392ZM236.566 256.71V253.614H235.09V256.71H229.132V257.898H243.658V256.71H236.566ZM255.23 250.896H251.198V249.096H249.722V250.896H245.708V252.084H255.23V250.896ZM248.012 255.828C248.012 254.766 248.984 254.064 250.46 254.064C251.936 254.064 252.926 254.766 252.926 255.828C252.926 256.908 251.936 257.61 250.46 257.61C248.984 257.61 248.012 256.908 248.012 255.828ZM254.33 255.828C254.33 254.064 252.764 252.912 250.46 252.912C248.174 252.912 246.608 254.064 246.608 255.828C246.608 257.61 248.174 258.744 250.46 258.744C252.764 258.744 254.33 257.61 254.33 255.828ZM247.706 261.372H256.706V265.35H258.182V260.166H247.706V261.372ZM260.576 253.65H258.182V249.204H256.706V259.284H258.182V254.874H260.576V253.65ZM280.591 255.342C277.657 254.91 274.777 252.912 274.777 250.662V249.762H273.229V250.662C273.229 252.966 270.385 254.91 267.451 255.342L268.045 256.53C270.565 256.098 272.995 254.712 274.003 252.75C275.047 254.694 277.477 256.098 279.979 256.53L280.591 255.342ZM281.293 258.276H266.713V259.5H273.229V265.35H274.705V259.5H281.311L281.293 258.276ZM292.83 250.896H288.798V249.096H287.322V250.896H283.308V252.084H292.83V250.896ZM285.612 255.828C285.612 254.766 286.584 254.064 288.06 254.064C289.536 254.064 290.526 254.766 290.526 255.828C290.526 256.908 289.536 257.61 288.06 257.61C286.584 257.61 285.612 256.908 285.612 255.828ZM291.93 255.828C291.93 254.064 290.364 252.912 288.06 252.912C285.774 252.912 284.208 254.064 284.208 255.828C284.208 257.61 285.774 258.744 288.06 258.744C290.364 258.744 291.93 257.61 291.93 255.828ZM285.306 261.372H294.306V265.35H295.782V260.166H285.306V261.372ZM298.176 253.65H295.782V249.204H294.306V259.284H295.782V254.874H298.176V253.65Z" fill="black"/>
<circle cx="193.5" cy="163.5" r="72.5" fill="#FFD8D8" fill-opacity="0.42"/>
<path d="M191.222 160.456C187.31 159.88 183.47 157.216 183.47 154.216V153.016H181.406V154.216C181.406 157.288 177.614 159.88 173.702 160.456L174.494 162.04C177.854 161.464 181.094 159.616 182.438 157C183.83 159.592 187.07 161.464 190.406 162.04L191.222 160.456ZM192.158 164.368H172.718V166H181.406V173.8H183.374V166H192.182L192.158 164.368ZM207.54 154.528H202.164V152.128H200.196V154.528H194.844V156.112H207.54V154.528ZM197.916 161.104C197.916 159.688 199.212 158.752 201.18 158.752C203.148 158.752 204.468 159.688 204.468 161.104C204.468 162.544 203.148 163.48 201.18 163.48C199.212 163.48 197.916 162.544 197.916 161.104ZM206.34 161.104C206.34 158.752 204.252 157.216 201.18 157.216C198.132 157.216 196.044 158.752 196.044 161.104C196.044 163.48 198.132 164.992 201.18 164.992C204.252 164.992 206.34 163.48 206.34 161.104ZM197.508 168.496H209.508V173.8H211.476V166.888H197.508V168.496ZM214.668 158.2H211.476V152.272H209.508V165.712H211.476V159.832H214.668V158.2Z" fill="black"/>
<path d="M583.5 344C583.5 346.741 581.161 349.506 576.524 352.128C571.927 354.727 565.242 357.084 556.938 359.07C540.337 363.04 517.378 365.5 492 365.5C466.622 365.5 443.663 363.04 427.062 359.07C418.758 357.084 412.073 354.727 407.476 352.128C402.839 349.506 400.5 346.741 400.5 344C400.5 341.259 402.839 338.494 407.476 335.872C412.073 333.273 418.758 330.916 427.062 328.93C443.663 324.96 466.622 322.5 492 322.5C517.378 322.5 540.337 324.96 556.938 328.93C565.242 330.916 571.927 333.273 576.524 335.872C581.161 338.494 583.5 341.259 583.5 344Z" stroke="#E4E4E4"/>
<path d="M278.608 195.829C277.867 198.467 274.867 200.497 269.693 201.766C264.564 203.024 257.491 203.485 248.959 203.15C231.903 202.48 209.135 198.636 184.704 191.77C160.273 184.903 138.835 176.323 123.928 168.01C116.471 163.851 110.673 159.773 106.95 156.027C103.195 152.249 101.692 148.953 102.434 146.315C103.175 143.676 106.175 141.646 111.349 140.377C116.478 139.119 123.551 138.659 132.083 138.994C149.138 139.664 171.907 143.507 196.338 150.374C220.769 157.24 242.207 165.82 257.114 174.134C264.571 178.292 270.369 182.37 274.092 186.116C277.847 189.895 279.35 193.19 278.608 195.829Z" stroke="#E4E4E4"/>
<path d="M693.101 43.0346C694.029 45.6136 692.764 49.0076 689.288 53.0439C685.841 57.0454 680.348 61.5258 673.206 66.2047C658.928 75.5581 638.156 85.643 614.276 94.2314C590.396 102.82 567.959 108.274 550.994 110.157C542.508 111.099 535.419 111.143 530.214 110.253C524.963 109.355 521.826 107.544 520.899 104.965C519.971 102.386 521.236 98.9923 524.713 94.956C528.159 90.9546 533.652 86.4741 540.794 81.7952C555.072 72.4418 575.844 62.3569 599.724 53.7686C623.604 45.1802 646.041 39.7255 663.006 37.843C671.492 36.9013 678.581 36.8569 683.786 37.7468C689.037 38.6446 692.174 40.4556 693.101 43.0346Z" stroke="#E4E4E4"/>
<circle cx="610.5" cy="72.5" r="72.5" fill="#FCD11C" fill-opacity="0.35"/>
<path d="M604.694 66.96H594.134V63.528H604.694V66.96ZM606.638 61.968H592.214V68.52H606.638V61.968ZM609.158 71.904V70.32H589.67V71.904H598.43V74.016H592.022V75.504H604.718V77.424H592.094V82.536H607.31V81H594.014V78.864H606.662V74.016H600.398V71.904H609.158ZM614.988 70.92H622.932V63.24H612.948V64.848H620.94V69.336H613.02V77.592H614.796C618.492 77.592 621.756 77.448 625.644 76.8L625.452 75.192C621.684 75.792 618.516 75.96 614.988 75.96V70.92ZM627.468 61.224V82.8H629.436V61.224H627.468Z" fill="black"/>
<circle cx="492.5" cy="335.5" r="72.5" fill="#63C09F" fill-opacity="0.35"/>
<path d="M484.678 326.864H479.254V324.272H477.286V326.864H471.814V328.424H484.678V326.864ZM475.054 333.68C475.054 332.192 476.35 331.208 478.27 331.208C480.19 331.208 481.486 332.192 481.486 333.68C481.486 335.168 480.19 336.128 478.27 336.128C476.35 336.128 475.054 335.168 475.054 333.68ZM479.254 337.616C481.726 337.304 483.358 335.816 483.358 333.68C483.358 331.256 481.27 329.696 478.27 329.696C475.27 329.696 473.182 331.256 473.182 333.68C473.182 335.816 474.814 337.304 477.286 337.616V339.968C475.198 340.04 473.182 340.04 471.454 340.04L471.718 341.696C475.486 341.696 480.55 341.648 485.158 340.832L485.038 339.368C483.19 339.656 481.198 339.8 479.254 339.896V337.616ZM491.638 333.392H488.278V324.248H486.31V345.776H488.278V335.048H491.638V333.392ZM506.54 326.528H501.164V324.128H499.196V326.528H493.844V328.112H506.54V326.528ZM496.916 333.104C496.916 331.688 498.212 330.752 500.18 330.752C502.148 330.752 503.468 331.688 503.468 333.104C503.468 334.544 502.148 335.48 500.18 335.48C498.212 335.48 496.916 334.544 496.916 333.104ZM505.34 333.104C505.34 330.752 503.252 329.216 500.18 329.216C497.132 329.216 495.044 330.752 495.044 333.104C495.044 335.48 497.132 336.992 500.18 336.992C503.252 336.992 505.34 335.48 505.34 333.104ZM496.508 340.496H508.508V345.8H510.476V338.888H496.508V340.496ZM513.668 330.2H510.476V324.272H508.508V337.712H510.476V331.832H513.668V330.2Z" fill="black"/>
</g>
<defs>
<filter id="filter0_b" x="-4" y="-4" width="771" height="460" filterUnits="userSpaceOnUse" color-interpolation-filters="sRGB">
<feFlood flood-opacity="0" result="BackgroundImageFix"/>
<feGaussianBlur in="BackgroundImage" stdDeviation="2"/>
<feComposite in2="SourceAlpha" operator="in" result="effect1_backgroundBlur"/>
<feBlend mode="normal" in="SourceGraphic" in2="effect1_backgroundBlur" result="shape"/>
</filter>
</defs>
</svg>
