<svg width="413" height="194" viewBox="0 0 413 194" fill="none" xmlns="http://www.w3.org/2000/svg">
<path d="M32.6201 15.6543L33.3145 9.20312H40.1875V11.0488H35.0898L34.7383 14.1074C35.3301 13.7676 35.998 13.5977 36.7422 13.5977C37.9609 13.5977 38.9072 13.9873 39.5811 14.7666C40.2607 15.5459 40.6006 16.5947 40.6006 17.9131C40.6006 19.2139 40.2256 20.251 39.4756 21.0244C38.7256 21.792 37.6973 22.1758 36.3906 22.1758C35.2188 22.1758 34.2461 21.8447 33.4727 21.1826C32.7051 20.5146 32.2891 19.6357 32.2246 18.5459H34.29C34.3721 19.167 34.5947 19.6445 34.958 19.9785C35.3213 20.3066 35.7959 20.4707 36.3818 20.4707C37.0381 20.4707 37.5479 20.2363 37.9111 19.7676C38.2803 19.2988 38.4648 18.6602 38.4648 17.8516C38.4648 17.0723 38.2627 16.457 37.8584 16.0059C37.4541 15.5488 36.8975 15.3203 36.1885 15.3203C35.8018 15.3203 35.4736 15.373 35.2041 15.4785C34.9346 15.5781 34.6416 15.7773 34.3252 16.0762L32.6201 15.6543ZM55.5233 7.186H54.0473V15.466H55.5233V7.186ZM44.0753 11.362C44.0753 9.958 45.2453 8.968 46.8113 8.968C48.3953 8.968 49.5473 9.958 49.5473 11.362C49.5473 12.748 48.3953 13.738 46.8113 13.738C45.2453 13.738 44.0753 12.748 44.0753 11.362ZM50.9873 11.362C50.9873 9.22 49.2233 7.762 46.8113 7.762C44.3993 7.762 42.6533 9.22 42.6533 11.362C42.6533 13.486 44.3993 14.926 46.8113 14.926C49.2233 14.926 50.9873 13.486 50.9873 11.362ZM46.5593 21.946V20.164H55.5233V16.258H45.0653V17.428H54.0653V19.066H45.1013V23.116H56.0633V21.946H46.5593ZM69.1035 22H66.9766V11.7256L63.8389 12.7979V10.9961L68.8311 9.15918H69.1035V22ZM74.1588 9.274V10.48H79.0008C78.7848 13.828 77.2548 16.744 73.5468 18.814L74.4108 19.876C79.0008 17.284 80.4588 13.432 80.4588 9.274H74.1588ZM85.8228 7.186V13.684H83.6268V7.618H82.2408V22.522H83.6268V14.89H85.8228V23.332H87.2448V7.186H85.8228ZM107.818 7.204H106.342V15.574H107.818V7.204ZM104.47 14.098C102.076 13.396 100.402 11.542 100.402 9.472V9.292H104.056V8.104H95.1998V9.292H98.8898V9.472C98.8898 11.668 97.2338 13.648 94.8038 14.422L95.5058 15.592C97.4678 14.926 98.9798 13.522 99.6638 11.74C100.402 13.396 101.896 14.674 103.786 15.25L104.47 14.098ZM98.8718 21.982V20.218H107.836V16.348H97.3778V17.5H106.378V19.12H97.4138V23.152H108.376V21.982H98.8718ZM122.414 12.424H114.458V9.13H122.414V12.424ZM123.872 7.942H113.018V13.612H123.872V7.942ZM114.458 18.364H112.982V22.972H124.142V21.766H114.458V18.364ZM111.11 15.448V16.636H117.824V19.894H119.3V16.636H125.78V15.448H111.11ZM136.003 15.988V17.158H139.513V19.39H140.989V7.204H139.513V15.988H136.003ZM132.133 18.346H133.609V14.62C135.139 14.512 136.705 14.368 138.163 14.098L138.055 13.036C137.479 13.126 136.849 13.18 136.237 13.234C136.579 11.2 136.579 9.688 136.579 8.788V8.176H129.055V9.364H135.139C135.121 10.282 135.067 11.596 134.743 13.36C132.205 13.54 129.649 13.558 127.579 13.576L127.777 14.782C129.073 14.782 130.567 14.764 132.133 14.692V18.346ZM131.431 21.766V18.058H129.973V22.972H141.385V21.766H131.431ZM153.48 10.282H156.36V9.076H148.998V10.282H152.058V11.74C152.058 14.71 150.798 17.644 148.548 18.994L149.448 20.092C151.05 19.084 152.22 17.194 152.778 14.98C153.336 17.032 154.452 18.76 156.018 19.696L156.918 18.616C154.686 17.356 153.48 14.548 153.48 11.74V10.282ZM157.8 12.982H155.136V14.188H157.8V22.486H159.204V7.546H157.8V12.982ZM161.04 7.168V23.314H162.462V7.168H161.04ZM176.591 9.382C176.591 10.642 176.591 11.83 176.159 13.486L177.599 13.648C178.049 11.992 178.049 10.678 178.049 9.382V8.014H167.051V9.202H176.591V9.382ZM172.541 22.162C170.021 22.162 168.401 21.478 168.401 20.362C168.401 19.21 170.021 18.526 172.541 18.526C175.079 18.526 176.699 19.21 176.699 20.362C176.699 21.478 175.079 22.162 172.541 22.162ZM172.541 17.392C169.103 17.392 166.925 18.49 166.925 20.362C166.925 22.198 169.103 23.314 172.541 23.314C175.979 23.314 178.175 22.198 178.175 20.362C178.175 18.49 175.979 17.392 172.541 17.392ZM172.775 14.71V11.614H171.299V14.71H165.341V15.898H179.867V14.71H172.775Z" fill="black"/>
<path d="M241.692 19.0205H236.735L235.698 22H233.387L238.221 9.20312H240.216L245.059 22H242.738L241.692 19.0205ZM237.359 17.2275H241.068L239.214 11.9189L237.359 17.2275ZM248.864 22H246.649V9.20312H248.864V22ZM268.729 14.08H259.135V12.118H268.153V10.966H259.135V9.13H268.531V7.942H257.677V15.268H268.729V14.08ZM270.349 16.924H255.715V18.13H259.531V23.314H261.007V18.13H265.075V23.314H266.551V18.13H270.349V16.924ZM274.506 14.386H279.798V13.198H274.506V9.868H280.5V8.644H273.03V19.462H274.272C277.35 19.462 279.312 19.372 281.652 18.958L281.49 17.752C279.294 18.148 277.422 18.256 274.506 18.256V14.386ZM284.118 7.168V13.27H280.788V14.494H284.118V23.35H285.594V7.168H284.118ZM294.088 8.374C291.586 8.374 289.768 9.904 289.768 12.172C289.768 14.422 291.586 15.97 294.088 15.97C296.608 15.97 298.408 14.422 298.408 12.172C298.408 9.904 296.608 8.374 294.088 8.374ZM294.088 9.634C295.762 9.634 296.968 10.66 296.968 12.172C296.968 13.666 295.762 14.71 294.088 14.71C292.432 14.71 291.208 13.666 291.208 12.172C291.208 10.66 292.432 9.634 294.088 9.634ZM300.532 7.186V23.368H302.008V7.186H300.532ZM289.138 19.822C292.054 19.822 295.96 19.786 299.596 19.12L299.47 18.022C295.942 18.562 291.892 18.58 288.958 18.58L289.138 19.822ZM318.514 11.38V12.586H321.7V16.816H323.194V7.204H321.7V11.38H318.514ZM319.414 15.052C317.074 14.224 315.49 12.19 315.49 10.12V9.562H319.036V8.374H310.414V9.562H314.014V10.12C314.014 12.442 312.358 14.62 309.946 15.502L310.72 16.672C312.61 15.952 314.104 14.44 314.788 12.568C315.49 14.224 316.876 15.556 318.676 16.204L319.414 15.052ZM317.866 22.18C315.436 22.18 313.96 21.496 313.96 20.326C313.96 19.156 315.436 18.454 317.866 18.454C320.296 18.454 321.772 19.156 321.772 20.326C321.772 21.496 320.296 22.18 317.866 22.18ZM317.866 17.32C314.554 17.32 312.484 18.418 312.484 20.326C312.484 22.234 314.554 23.332 317.866 23.332C321.178 23.332 323.248 22.234 323.248 20.326C323.248 18.418 321.178 17.32 317.866 17.32ZM336.044 8.662H332.156V7.078H330.68V8.662H326.774V9.778H336.044V8.662ZM329.042 12.766C329.042 11.92 329.96 11.398 331.418 11.398C332.84 11.398 333.776 11.92 333.776 12.766C333.776 13.612 332.84 14.152 331.418 14.152C329.96 14.152 329.042 13.612 329.042 12.766ZM336.53 15.862C335.126 16.078 333.632 16.186 332.156 16.258V15.142C334.01 14.944 335.18 14.08 335.18 12.766C335.18 11.29 333.668 10.372 331.418 10.372C329.132 10.372 327.638 11.29 327.638 12.766C327.638 14.098 328.808 14.962 330.68 15.142V16.312C329.132 16.366 327.656 16.366 326.378 16.366L326.54 17.554C329.366 17.536 333.182 17.518 336.638 16.924L336.53 15.862ZM328.34 20.002H337.484V23.332H338.96V18.832H328.34V20.002ZM341.318 12.082H338.96V7.204H337.484V18.022H338.96V13.306H341.318V12.082ZM352.585 9.166H348.553V7.186H347.077V9.166H343.063V10.354H352.585V9.166ZM345.367 14.242C345.367 13.126 346.357 12.406 347.815 12.406C349.273 12.406 350.281 13.126 350.281 14.242C350.281 15.376 349.273 16.096 347.815 16.096C346.357 16.096 345.367 15.376 345.367 14.242ZM351.685 14.242C351.685 12.442 350.101 11.254 347.815 11.254C345.529 11.254 343.963 12.442 343.963 14.242C343.963 16.06 345.529 17.248 347.815 17.248C350.101 17.248 351.685 16.06 351.685 14.242ZM346.969 18.346H345.493V22.972H356.257V21.766H346.969V18.346ZM355.537 12.514V7.186H354.061V19.3H355.537V13.756H357.913V12.514H355.537ZM377.046 14.08H367.452V12.118H376.47V10.966H367.452V9.13H376.848V7.942H365.994V15.268H377.046V14.08ZM378.666 16.924H364.032V18.13H367.848V23.314H369.324V18.13H373.392V23.314H374.868V18.13H378.666V16.924ZM382.822 14.386H388.114V13.198H382.822V9.868H388.816V8.644H381.346V19.462H382.588C385.666 19.462 387.628 19.372 389.968 18.958L389.806 17.752C387.61 18.148 385.738 18.256 382.822 18.256V14.386ZM392.434 7.168V13.27H389.104V14.494H392.434V23.35H393.91V7.168H392.434ZM410.415 7.186H408.939V17.122H410.415V7.186ZM406.977 14.422C404.421 14.836 402.315 14.926 399.453 14.926V12.658H405.303V8.194H397.959V9.4H403.845V11.524H398.013V16.132H399.309C402.297 16.132 404.493 16.042 407.139 15.61L406.977 14.422ZM405.069 22.144C402.621 22.144 401.145 21.496 401.145 20.38C401.145 19.282 402.621 18.634 405.069 18.634C407.553 18.634 409.029 19.282 409.029 20.38C409.029 21.496 407.553 22.144 405.069 22.144ZM405.069 17.464C401.721 17.464 399.669 18.526 399.669 20.38C399.669 22.252 401.721 23.314 405.069 23.314C408.435 23.314 410.505 22.252 410.505 20.38C410.505 18.526 408.435 17.464 405.069 17.464Z" fill="black"/>
<rect y="40" width="184" height="154" fill="#C4C4C4"/>
<rect x="218" y="40" width="184" height="154" fill="#C4C4C4"/>
<path d="M13.7728 3.73535V7.66614L19.3601 5.80303" fill="#3B3B67"/>
<path d="M13.6879 22.6255C12.0977 22.6255 10.5081 22.6255 8.91791 22.6255L8.89884 17.7445C8.77745 17.8589 7.94682 18.6165 6.80867 18.4709C5.72774 18.3326 4.62254 17.4124 4.66127 16.1607C4.70057 14.896 5.88555 14.0001 7.01792 13.9808C8.09768 13.9627 8.80635 14.7469 8.91849 14.875C8.91849 13.2108 8.91849 11.5465 8.91849 9.88232H22.1445V22.6249C20.5798 22.6249 19.015 22.6249 17.4503 22.6249C17.5532 22.4929 18.2225 21.6067 17.9636 20.4825C17.7248 19.4472 16.7844 18.5808 15.626 18.5264C14.3035 18.4641 13.1532 19.4829 13.0035 20.6689C12.8728 21.7115 13.5636 22.4895 13.6879 22.6255Z" fill="#18AF6A"/>
<path d="M216.773 3.73535V7.66614L222.36 5.80303" fill="#3B3B67"/>
<path d="M216.688 22.6255C215.098 22.6255 213.508 22.6255 211.918 22.6255L211.899 17.7445C211.777 17.8589 210.947 18.6165 209.809 18.4709C208.728 18.3326 207.623 17.4124 207.661 16.1607C207.701 14.896 208.886 14.0001 210.018 13.9808C211.098 13.9627 211.806 14.7469 211.918 14.875C211.918 13.2108 211.918 11.5465 211.918 9.88232H225.145V22.6249C223.58 22.6249 222.015 22.6249 220.45 22.6249C220.553 22.4929 221.223 21.6067 220.964 20.4825C220.725 19.4472 219.784 18.5808 218.626 18.5264C217.303 18.4641 216.153 19.4829 216.003 20.6689C215.873 21.7115 216.564 22.4895 216.688 22.6255Z" fill="#18AF6A"/>
</svg>
