<svg width="524" height="246" viewBox="0 0 524 246" fill="none" xmlns="http://www.w3.org/2000/svg">
<path d="M34.3457 226.994H38.8637V235.04H34.3457V226.994ZM32.9057 236.228H40.3037V225.806H32.9057V236.228ZM47.3417 230.63H44.6777V224.204H43.2017V240.332H44.6777V231.872H47.3417V230.63ZM49.5183 225.212V226.418H55.3863C55.0983 229.154 52.7403 231.278 48.7983 232.34L49.3743 233.51C54.1263 232.214 56.9703 229.316 56.9703 225.212H49.5183ZM52.6323 235.292H59.8863V238.91H52.6323V235.292ZM51.1743 240.098H61.3443V234.104H51.1743V240.098ZM63.7383 228.128H61.3443V224.168H59.8683V233.348H61.3443V229.352H63.7383V228.128ZM71.0989 225.59H69.6409V228.488C69.6409 231.548 67.6789 234.644 65.3029 235.778L66.2029 236.984C68.0929 236.012 69.6409 233.996 70.3789 231.566C71.1529 233.87 72.7009 235.778 74.5369 236.678L75.4189 235.49C73.0249 234.41 71.0989 231.44 71.0989 228.488V225.59ZM77.1109 224.186V240.368H78.5869V224.186H77.1109ZM82.6175 225.446V226.652H88.5575C88.2515 229.496 85.7675 231.782 81.9695 232.97L82.5635 234.14C87.2075 232.682 90.1415 229.622 90.1415 225.446H82.6175ZM85.8755 234.788H84.3995V239.972H95.1635V238.766H85.8755V234.788ZM94.4615 229.1V224.204H92.9855V235.994H94.4615V230.324H96.8375V229.1H94.4615ZM102.146 235.418C100.85 235.418 100.04 233.78 100.04 231.134C100.04 228.542 100.85 226.904 102.146 226.904C103.406 226.904 104.234 228.542 104.234 231.134C104.234 233.78 103.406 235.418 102.146 235.418ZM107.6 230.468H105.566C105.386 227.426 104.09 225.536 102.146 225.536C100.04 225.536 98.6901 227.696 98.6901 231.134C98.6901 234.626 100.04 236.786 102.146 236.786C104.126 236.786 105.44 234.842 105.566 231.674H107.6V239.54H109.004V224.546H107.6V230.468ZM110.804 224.186V240.332H112.208V224.186H110.804ZM121.477 227.084H124.087V225.878H120.019V236.102H120.739C121.711 236.102 122.899 236.084 124.411 235.76L124.249 234.536C123.205 234.752 122.269 234.842 121.477 234.86V227.084ZM126.445 227.084H129.271V225.878H124.987V236.102H125.779C127.435 236.102 128.551 236.066 129.919 235.724L129.775 234.5C128.677 234.77 127.687 234.86 126.445 234.878V227.084ZM134.527 230.522H132.205V224.168H130.729V240.332H132.205V231.764H134.527V230.522ZM138.198 231.476H144.012V225.68H136.704V226.886H142.554V230.27H136.758V236.444H138.036C141.114 236.444 143.274 236.318 145.794 235.868L145.632 234.644C143.22 235.112 141.132 235.22 138.198 235.22V231.476ZM151.176 230.594H148.53V224.168H147.054V240.35H148.53V231.836H151.176V230.594Z" fill="black"/>
<path d="M238.584 229.424H230.628V226.13H238.584V229.424ZM240.042 224.942H229.188V230.612H240.042V224.942ZM230.628 235.364H229.152V239.972H240.312V238.766H230.628V235.364ZM227.28 232.448V233.636H233.994V236.894H235.47V233.636H241.95V232.448H227.28ZM248.609 227.282H251.489V226.076H244.127V227.282H247.187V228.74C247.187 231.71 245.927 234.644 243.677 235.994L244.577 237.092C246.179 236.084 247.349 234.194 247.907 231.98C248.465 234.032 249.581 235.76 251.147 236.696L252.047 235.616C249.815 234.356 248.609 231.548 248.609 228.74V227.282ZM252.929 229.982H250.265V231.188H252.929V239.486H254.333V224.546H252.929V229.982ZM256.169 224.168V240.314H257.591V224.168H256.169ZM264.087 235.418C262.791 235.418 261.981 233.78 261.981 231.134C261.981 228.542 262.791 226.904 264.087 226.904C265.347 226.904 266.175 228.542 266.175 231.134C266.175 233.78 265.347 235.418 264.087 235.418ZM269.541 230.468H267.507C267.327 227.426 266.031 225.536 264.087 225.536C261.981 225.536 260.631 227.696 260.631 231.134C260.631 234.626 261.981 236.786 264.087 236.786C266.067 236.786 267.381 234.842 267.507 231.674H269.541V239.54H270.945V224.546H269.541V230.468ZM272.745 224.186V240.332H274.149V224.186H272.745ZM283.419 227.084H286.029V225.878H281.961V236.102H282.681C283.653 236.102 284.841 236.084 286.353 235.76L286.191 234.536C285.147 234.752 284.211 234.842 283.419 234.86V227.084ZM288.387 227.084H291.213V225.878H286.929V236.102H287.721C289.377 236.102 290.493 236.066 291.861 235.724L291.717 234.5C290.619 234.77 289.629 234.86 288.387 234.878V227.084ZM296.469 230.522H294.147V224.168H292.671V240.332H294.147V231.764H296.469V230.522ZM300.139 231.476H305.953V225.68H298.645V226.886H304.495V230.27H298.699V236.444H299.977C303.055 236.444 305.215 236.318 307.735 235.868L307.573 234.644C305.161 235.112 303.073 235.22 300.139 235.22V231.476ZM313.117 230.594H310.471V224.168H308.995V240.35H310.471V231.836H313.117V230.594Z" fill="black"/>
<path d="M114.988 30H110.472V12.5938L105.081 14.2656V10.5938L114.503 7.21875H114.988V30ZM136.106 20.5938C136.106 23.7396 135.455 26.1458 134.153 27.8125C132.851 29.4792 130.945 30.3125 128.434 30.3125C125.955 30.3125 124.059 29.4948 122.747 27.8594C121.434 26.224 120.763 23.8802 120.731 20.8281V16.6406C120.731 13.4635 121.388 11.0521 122.7 9.40625C124.023 7.76042 125.924 6.9375 128.403 6.9375C130.882 6.9375 132.778 7.75521 134.091 9.39062C135.403 11.0156 136.075 13.3542 136.106 16.4062V20.5938ZM131.591 16C131.591 14.1146 131.33 12.7448 130.809 11.8906C130.299 11.026 129.497 10.5938 128.403 10.5938C127.341 10.5938 126.554 11.0052 126.044 11.8281C125.544 12.6406 125.278 13.9167 125.247 15.6562V21.1875C125.247 23.0417 125.497 24.4219 125.997 25.3281C126.507 26.224 127.32 26.6719 128.434 26.6719C129.539 26.6719 130.335 26.2396 130.825 25.375C131.315 24.5104 131.57 23.1875 131.591 21.4062V16ZM156.47 13.04H144.982V10.384H156.47V13.04ZM160.662 4.208H156.47V7.216H144.982V4.208H140.79V16.336H160.662V4.208ZM144.694 24.144H140.47V32.24H161.142V28.88H144.694V24.144ZM137.366 18.384V21.712H148.982V26.352H153.206V21.712H164.086V18.384H137.366ZM191.796 3.248V32.816H196.02V3.248H191.796ZM180.18 5.328C175.732 5.328 172.436 9.36 172.436 15.824C172.436 22.32 175.732 26.384 180.18 26.384C184.628 26.384 187.924 22.32 187.924 15.824C187.924 9.36 184.628 5.328 180.18 5.328ZM180.18 9.136C182.356 9.136 183.86 11.472 183.86 15.824C183.86 20.208 182.356 22.544 180.18 22.544C178.004 22.544 176.5 20.208 176.5 15.824C176.5 11.472 178.004 9.136 180.18 9.136ZM204.818 6.544H200.594V25.584H202.642C205.586 25.584 208.978 25.424 212.818 24.72L212.466 21.168C209.65 21.68 207.122 21.872 204.818 21.936V6.544ZM220.658 3.248V14.608H218.002V3.792H214.066V31.344H218.002V18.032H220.658V32.72H224.69V3.248H220.658Z" fill="#18AF6A"/>
<path d="M258.004 3.696H255.476V25.136H258.004V3.696ZM243.7 17.488H237.524V8.464H243.7V17.488ZM246.132 13.904H250.036V24.304H252.5V4.24H250.036V11.76H246.132V6.416H235.06V19.536H246.132V13.904ZM241.908 29.584V22.48H239.284V31.728H258.836V29.584H241.908ZM275.922 26.64V20.72H284.69V18.576H267.602V14.256H283.762V12.176H267.602V8.144H284.402V6H264.946V20.72H273.298V26.64H261.586V28.784H287.666V26.64H275.922ZM313.007 3.664H310.383V21.328H313.007V3.664ZM306.895 16.528C302.351 17.264 298.607 17.424 293.519 17.424V13.392H303.919V5.456H290.863V7.6H301.327V11.376H290.959V19.568H293.263C298.575 19.568 302.479 19.408 307.183 18.64L306.895 16.528ZM303.503 30.256C299.151 30.256 296.527 29.104 296.527 27.12C296.527 25.168 299.151 24.016 303.503 24.016C307.919 24.016 310.543 25.168 310.543 27.12C310.543 29.104 307.919 30.256 303.503 30.256ZM303.503 21.936C297.551 21.936 293.903 23.824 293.903 27.12C293.903 30.448 297.551 32.336 303.503 32.336C309.487 32.336 313.167 30.448 313.167 27.12C313.167 23.824 309.487 21.936 303.503 21.936ZM344.466 11.728V16.048H336.914V18.192H344.466V25.04H347.122V3.696H344.466V9.584H338.034C338.354 8.432 338.514 7.184 338.514 5.936H325.426V8.048H335.698C335.122 13.2 330.578 17.328 323.954 19.472L325.106 21.616C330.962 19.696 335.314 16.272 337.298 11.728H344.466ZM331.602 29.584V22.96H328.978V31.728H347.858V29.584H331.602ZM368.24 17.68C364.08 16.208 361.264 12.592 361.264 8.912V7.76H367.568V5.616H352.24V7.76H358.64V8.912C358.64 12.976 355.664 16.816 351.408 18.32L352.784 20.4C356.144 19.152 358.768 16.528 359.984 13.232C361.264 16.208 363.728 18.576 366.928 19.728L368.24 17.68ZM355.76 24.528H372.304V32.4H374.96V22.416H355.76V24.528ZM372.304 3.664V11.152H366.704V13.296H372.304V20.848H374.96V3.664H372.304ZM389.394 10.64C389.394 8.464 391.282 6.992 394.034 6.992C396.722 6.992 398.642 8.464 398.642 10.64C398.642 12.848 396.722 14.288 394.034 14.288C391.282 14.288 389.394 12.848 389.394 10.64ZM403.186 18.288C400.69 18.672 398.034 18.864 395.378 19.024V16.208C398.802 15.792 401.106 13.68 401.106 10.64C401.106 7.28 398.194 5.008 394.034 5.008C389.842 5.008 386.962 7.28 386.962 10.64C386.962 13.712 389.266 15.824 392.754 16.24V19.12C390.066 19.216 387.506 19.248 385.298 19.248L385.65 21.392C390.546 21.392 397.362 21.296 403.346 20.208L403.186 18.288ZM392.05 23.792H389.426V31.696H408.594V29.552H392.05V23.792ZM407.57 13.392V3.696H404.946V25.648H407.57V15.568H411.762V13.392H407.57ZM423.024 21.232H429.584V26.672H423.024V21.232ZM432.176 26.672V21.232H436.656V19.088H418.992V14.48H435.984V5.776H416.336V7.92H433.424V12.368H416.4V21.232H420.432V26.672H413.136V28.816H439.216V26.672H432.176ZM443.747 23.6719H442.013L441.919 7.25H443.856L443.747 23.6719ZM441.7 28.9062C441.7 28.5521 441.815 28.2552 442.044 28.0156C442.273 27.7656 442.585 27.6406 442.981 27.6406C443.377 27.6406 443.69 27.7656 443.919 28.0156C444.158 28.2552 444.278 28.5521 444.278 28.9062C444.278 29.25 444.158 29.5417 443.919 29.7812C443.69 30.0104 443.377 30.125 442.981 30.125C442.585 30.125 442.273 30.0104 442.044 29.7812C441.815 29.5417 441.7 29.25 441.7 28.9062Z" fill="black"/>
<path d="M389.436 232.718C391.938 232.34 394.26 231.098 395.286 229.352C396.312 231.098 398.616 232.34 401.118 232.718L401.64 231.53C398.76 231.134 396.024 229.352 396.024 227.372H401.172V226.184H396.024V224.186H394.548V226.184H389.4V227.372H394.53C394.53 229.37 391.812 231.134 388.896 231.53L389.436 232.718ZM402.594 233.942H387.996V235.148H394.548V240.35H396.024V235.148H402.594V233.942ZM405.401 225.914V227.138H411.323C410.981 230.954 408.767 234.05 404.645 236.12L405.455 237.272C410.675 234.662 412.781 230.504 412.781 225.914H405.401ZM419.549 230.738H416.957V224.186H415.481V240.332H416.957V231.962H419.549V230.738ZM426.748 225.572H425.272V228.47C425.272 231.458 423.436 234.572 421.096 235.742L421.996 236.912C423.814 235.94 425.308 233.906 426.01 231.512C426.748 233.78 428.224 235.706 430.06 236.624L430.924 235.454C428.584 234.338 426.748 231.404 426.748 228.47V225.572ZM432.922 224.186V229.658H429.178V230.864H432.922V240.35H434.398V224.186H432.922ZM449.39 224.186V240.35H450.866V224.186H449.39ZM438.572 225.554V236.444H446.168V225.554H444.71V229.82H440.03V225.554H438.572ZM440.03 230.99H444.71V235.238H440.03V230.99ZM468.127 232.304C465.301 231.764 462.241 229.316 462.241 226.562V225.32H460.693V226.562C460.693 229.316 457.651 231.746 454.825 232.304L455.491 233.528C457.921 232.952 460.441 231.224 461.467 228.866C462.493 231.242 465.013 232.97 467.461 233.528L468.127 232.304ZM454.213 236.948V238.172H468.847V236.948H454.213ZM474.425 235.418C473.129 235.418 472.319 233.78 472.319 231.134C472.319 228.542 473.129 226.904 474.425 226.904C475.685 226.904 476.513 228.542 476.513 231.134C476.513 233.78 475.685 235.418 474.425 235.418ZM479.879 230.468H477.845C477.665 227.426 476.369 225.536 474.425 225.536C472.319 225.536 470.969 227.696 470.969 231.134C470.969 234.626 472.319 236.786 474.425 236.786C476.405 236.786 477.719 234.842 477.845 231.674H479.879V239.54H481.283V224.546H479.879V230.468ZM483.083 224.186V240.332H484.487V224.186H483.083ZM493.756 227.084H496.366V225.878H492.298V236.102H493.018C493.99 236.102 495.178 236.084 496.69 235.76L496.528 234.536C495.484 234.752 494.548 234.842 493.756 234.86V227.084ZM498.724 227.084H501.55V225.878H497.266V236.102H498.058C499.714 236.102 500.83 236.066 502.198 235.724L502.054 234.5C500.956 234.77 499.966 234.86 498.724 234.878V227.084ZM506.806 230.522H504.484V224.168H503.008V240.332H504.484V231.764H506.806V230.522ZM510.477 231.476H516.291V225.68H508.983V226.886H514.833V230.27H509.037V236.444H510.315C513.393 236.444 515.553 236.318 518.073 235.868L517.911 234.644C515.499 235.112 513.411 235.22 510.477 235.22V231.476ZM523.455 230.594H520.809V224.168H519.333V240.35H520.809V231.836H523.455V230.594Z" fill="black"/>
<rect x="5" y="68" width="150" height="133" fill="#C4C4C4"/>
<rect x="185" y="68" width="150" height="133" fill="#C4C4C4"/>
<rect x="365" y="68" width="150" height="133" fill="#C4C4C4"/>
<path d="M13.7728 221.735V225.666L19.3601 223.803" fill="#3B3B67"/>
<path d="M13.6879 240.626C12.0977 240.626 10.5081 240.626 8.91791 240.626L8.89884 235.744C8.77745 235.859 7.94682 236.617 6.80867 236.471C5.72774 236.333 4.62254 235.412 4.66127 234.161C4.70057 232.896 5.88555 232 7.01792 231.981C8.09768 231.963 8.80635 232.747 8.91849 232.875C8.91849 231.211 8.91849 229.547 8.91849 227.882H22.1445V240.625C20.5798 240.625 19.015 240.625 17.4503 240.625C17.5532 240.493 18.2225 239.607 17.9636 238.482C17.7248 237.447 16.7844 236.581 15.626 236.526C14.3035 236.464 13.1532 237.483 13.0035 238.669C12.8728 239.712 13.5636 240.49 13.6879 240.626Z" fill="#18AF6A"/>
<path d="M208.773 221.735V225.666L214.36 223.803" fill="#3B3B67"/>
<path d="M208.688 240.626C207.098 240.626 205.508 240.626 203.918 240.626L203.899 235.744C203.777 235.859 202.947 236.617 201.809 236.471C200.728 236.333 199.623 235.412 199.661 234.161C199.701 232.896 200.886 232 202.018 231.981C203.098 231.963 203.806 232.747 203.918 232.875C203.918 231.211 203.918 229.547 203.918 227.882H217.145V240.625C215.58 240.625 214.015 240.625 212.45 240.625C212.553 240.493 213.223 239.607 212.964 238.482C212.725 237.447 211.784 236.581 210.626 236.526C209.303 236.464 208.153 237.483 208.003 238.669C207.873 239.712 208.564 240.49 208.688 240.626Z" fill="#18AF6A"/>
<path d="M369.773 221.735V225.666L375.36 223.803" fill="#3B3B67"/>
<path d="M369.688 240.626C368.098 240.626 366.508 240.626 364.918 240.626L364.899 235.744C364.777 235.859 363.947 236.617 362.809 236.471C361.728 236.333 360.623 235.412 360.661 234.161C360.701 232.896 361.886 232 363.018 231.981C364.098 231.963 364.806 232.747 364.918 232.875C364.918 231.211 364.918 229.547 364.918 227.882H378.145V240.625C376.58 240.625 375.015 240.625 373.45 240.625C373.553 240.493 374.223 239.607 373.964 238.482C373.725 237.447 372.784 236.581 371.626 236.526C370.303 236.464 369.153 237.483 369.003 238.669C368.873 239.712 369.564 240.49 369.688 240.626Z" fill="#18AF6A"/>
</svg>
