<svg width="534" height="230" viewBox="0 0 534 230" fill="none" xmlns="http://www.w3.org/2000/svg">
<rect width="259" height="230" fill="#C4C4C4"/>
<rect x="276" y="1" width="258" height="229" fill="#C4C4C4"/>
<path d="M104.68 99.678V101.604H100.468V102.756H104.68V104.43H106.174V96.186H104.68V98.526H101.026C101.134 98.022 101.188 97.518 101.188 96.978H93.97V98.184H99.586C99.316 100.74 97.066 102.666 93.124 103.584L93.664 104.79C97.228 103.944 99.694 102.216 100.702 99.678H104.68ZM97.264 111V109.128H106.174V105.168H95.77V106.356H104.698V108.012H95.806V112.17H106.714V111H97.264ZM114.165 99.282H117.045V98.076H109.683V99.282H112.743V100.74C112.743 103.71 111.483 106.644 109.233 107.994L110.133 109.092C111.735 108.084 112.905 106.194 113.463 103.98C114.021 106.032 115.137 107.76 116.703 108.696L117.603 107.616C115.371 106.356 114.165 103.548 114.165 100.74V99.282ZM118.485 101.982H115.821V103.188H118.485V111.486H119.889V96.546H118.485V101.982ZM121.725 96.168V112.314H123.147V96.168H121.725ZM132.74 100.11C132.74 98.886 133.802 98.058 135.35 98.058C136.862 98.058 137.942 98.886 137.942 100.11C137.942 101.352 136.862 102.162 135.35 102.162C133.802 102.162 132.74 101.352 132.74 100.11ZM140.498 104.412C139.094 104.628 137.6 104.736 136.106 104.826V103.242C138.032 103.008 139.328 101.82 139.328 100.11C139.328 98.22 137.69 96.942 135.35 96.942C132.992 96.942 131.372 98.22 131.372 100.11C131.372 101.838 132.668 103.026 134.63 103.26V104.88C133.118 104.934 131.678 104.952 130.436 104.952L130.634 106.158C133.388 106.158 137.222 106.104 140.588 105.492L140.498 104.412ZM134.234 107.508H132.758V111.954H143.54V110.748H134.234V107.508ZM142.964 101.658V96.204H141.488V108.552H142.964V102.882H145.322V101.658H142.964ZM152.557 106.068H156.247V109.128H152.557V106.068ZM157.705 109.128V106.068H160.225V104.862H150.289V102.27H159.847V97.374H148.795V98.58H158.407V101.082H148.831V106.068H151.099V109.128H146.995V110.334H161.665V109.128H157.705ZM108.442 120.426H110.458V128.004C109.774 128.04 109.108 128.058 108.442 128.076V120.426ZM111.808 120.426H113.14V119.238H105.76V120.426H107.092V128.112C106.48 128.13 105.94 128.13 105.454 128.13L105.598 129.354C107.704 129.354 111.088 129.282 113.59 128.814L113.5 127.734C112.978 127.806 112.384 127.86 111.808 127.914V120.426ZM114.868 123.342H112.654V124.638H114.868V132.486H116.254V117.582H114.868V123.342ZM117.982 117.204V133.332H119.404V117.204H117.982ZM133.911 117.186V133.368H135.387V117.186H133.911ZM126.873 118.428C124.479 118.428 122.769 120.624 122.769 124.062C122.769 127.5 124.479 129.696 126.873 129.696C129.267 129.696 130.977 127.5 130.977 124.062C130.977 120.624 129.267 118.428 126.873 118.428ZM126.873 119.76C128.439 119.76 129.555 121.452 129.555 124.062C129.555 126.69 128.439 128.382 126.873 128.382C125.289 128.382 124.173 126.69 124.173 124.062C124.173 121.452 125.289 119.76 126.873 119.76ZM144.493 120.066H148.291V118.842H139.273V120.066H143.017V122.118C143.017 124.908 141.055 127.95 138.733 129.048L139.597 130.236C141.433 129.3 143.017 127.266 143.755 124.908C144.529 127.122 146.113 128.976 147.985 129.84L148.813 128.652C146.437 127.644 144.493 124.854 144.493 122.118V120.066ZM150.469 117.204V133.332H151.945V117.204H150.469Z" fill="black"/>
<path d="M384.73 106.204H383.308V118.264H384.73V106.204ZM376.684 113.962H373.21V108.886H376.684V113.962ZM378.052 111.946H380.248V117.796H381.634V106.51H380.248V110.74H378.052V107.734H371.824V115.114H378.052V111.946ZM375.676 120.766V116.77H374.2V121.972H385.198V120.766H375.676ZM395.709 119.11V115.78H400.641V114.574H391.029V112.144H400.119V110.974H391.029V108.706H400.479V107.5H389.535V115.78H394.233V119.11H387.645V120.316H402.315V119.11H395.709ZM414.104 107.59H412.646V110.488C412.646 113.422 410.81 116.518 408.488 117.706L409.37 118.894C411.188 117.922 412.682 115.906 413.384 113.548C414.122 115.762 415.58 117.652 417.29 118.57L418.208 117.4C415.94 116.266 414.104 113.332 414.104 110.488V107.59ZM423.77 112.738H421.106V106.204H419.63V122.332H421.106V113.962H423.77V112.738ZM438.493 106.204H437.017V118.012H438.493V106.204ZM435.109 114.538C432.733 113.746 431.059 111.784 431.059 109.606V108.724H434.713V107.536H425.857V108.724H429.547V109.606C429.547 111.91 427.909 114.016 425.461 114.862L426.235 116.014C428.143 115.33 429.637 113.872 430.321 112.036C431.059 113.728 432.535 115.06 434.389 115.708L435.109 114.538ZM429.583 120.766V116.896H428.107V121.972H438.979V120.766H429.583Z" fill="black"/>
</svg>
