<svg width="270" height="210" viewBox="0 0 270 210" fill="none" xmlns="http://www.w3.org/2000/svg">
<rect x="6" y="6" width="258" height="198" stroke="#C4C4C4" stroke-width="2"/>
<rect x="33" y="75" width="24" height="24" fill="#C4C4C4"/>
<path d="M78.008 85.378C76.37 85.714 74.942 85.798 72.464 85.798V82.228H76.846V81.304H71.316V86.75H72.296C74.928 86.75 76.412 86.666 78.134 86.302L78.008 85.378ZM79.352 91.888H73.71V90.32H79.352V91.888ZM79.352 89.41H73.71V87.842H72.576V92.826H80.486V87.842H79.352V89.41ZM82.348 83.418H80.486V80.464H79.338V87.17H80.486V84.37H82.348V83.418ZM88.7869 86.498H85.2589V82.522H88.7869V86.498ZM89.9069 81.598H84.1389V87.408H89.9069V81.598ZM86.7009 88.808H85.5529V92.756H93.9249V91.818H86.7009V88.808ZM93.3649 84.3V80.464H92.2169V89.662H93.3649V85.266H95.2129V84.3H93.3649Z" fill="black"/>
<rect x="33" y="116" width="24" height="24" fill="#C4C4C4"/>
<path d="M71.484 122.836V123.76H76.202C75.964 126.742 74.284 129.15 70.91 130.76L71.526 131.698C75.698 129.654 77.364 126.462 77.364 122.836H71.484ZM79.898 121.478V134.036H81.046V121.478H79.898ZM86.2249 130.284H85.0769V133.756H93.7149V132.818H86.2249V130.284ZM86.2529 124.46H92.3569V126.07H86.2529V124.46ZM89.8789 128.338V126.994H93.4909V121.968H92.3569V123.564H86.2529V121.968H85.1189V126.994H88.7309V128.338H83.6069V129.276H94.9749V128.338H89.8789Z" fill="black"/>
<rect x="33" y="157" width="24" height="24" fill="#C4C4C4"/>
<path d="M77.994 168.386C76.188 167.77 74.956 166.202 74.956 164.508V163.122H73.808V164.41C73.808 166.328 72.59 168.036 70.686 168.722L71.288 169.632C72.758 169.072 73.878 167.924 74.396 166.454C74.956 167.742 76.034 168.778 77.392 169.282L77.994 168.386ZM76.496 174.126C74.634 174.126 73.5 173.608 73.5 172.74C73.5 171.858 74.634 171.34 76.496 171.34C78.344 171.34 79.478 171.858 79.478 172.74C79.478 173.608 78.344 174.126 76.496 174.126ZM76.496 170.444C73.934 170.444 72.352 171.27 72.352 172.74C72.352 174.196 73.934 175.022 76.496 175.022C79.044 175.022 80.626 174.196 80.626 172.74C80.626 171.27 79.044 170.444 76.496 170.444ZM80.486 165.726V162.492H79.338V170.094H80.486V166.678H82.348V165.726H80.486ZM87.3449 163.668H86.2389V166.062C86.2389 168.218 85.2029 170.472 83.4809 171.48L84.1949 172.334C85.4409 171.564 86.3509 170.15 86.7989 168.484C87.2469 170.01 88.0869 171.34 89.2769 172.068L89.9349 171.172C88.2829 170.164 87.3449 168.036 87.3449 166.02V163.668ZM90.6489 166.986H88.5769V167.938H90.6489V174.42H91.7269V162.758H90.6489V166.986ZM93.1969 162.478V175.036H94.2889V162.478H93.1969ZM103.948 164.018H100.812V162.478H99.6638V164.018H96.5418V164.942H103.948V164.018ZM98.3338 167.966C98.3338 167.098 99.1038 166.538 100.238 166.538C101.372 166.538 102.156 167.098 102.156 167.966C102.156 168.848 101.372 169.408 100.238 169.408C99.1038 169.408 98.3338 168.848 98.3338 167.966ZM103.248 167.966C103.248 166.566 102.016 165.642 100.238 165.642C98.4598 165.642 97.2418 166.566 97.2418 167.966C97.2418 169.38 98.4598 170.304 100.238 170.304C102.016 170.304 103.248 169.38 103.248 167.966ZM99.5798 171.158H98.4318V174.756H106.804V173.818H99.5798V171.158ZM106.244 166.622V162.478H105.096V171.9H106.244V167.588H108.092V166.622H106.244ZM120.089 166.048H116.967V163.696H120.089V166.048ZM115.819 166.048H113.957V166.93H123.085V166.048H121.237V163.696H123.127V162.814H113.915V163.696H115.819V166.048ZM124.205 168.904V167.98H112.851V168.904H117.961V170.094H114.223V170.948H121.629V172.026H114.265V174.896H123.141V174.028H115.385V172.852H122.763V170.094H119.109V168.904H124.205ZM134.872 162.478V175.064H136.02V162.478H134.872ZM129.398 163.444C127.536 163.444 126.206 165.152 126.206 167.826C126.206 170.5 127.536 172.208 129.398 172.208C131.26 172.208 132.59 170.5 132.59 167.826C132.59 165.152 131.26 163.444 129.398 163.444ZM129.398 164.48C130.616 164.48 131.484 165.796 131.484 167.826C131.484 169.87 130.616 171.186 129.398 171.186C128.166 171.186 127.298 169.87 127.298 167.826C127.298 165.796 128.166 164.48 129.398 164.48Z" fill="black"/>
<path d="M95.5137 42.9355C95.5137 44.1895 95.2969 45.291 94.8633 46.2402C94.4297 47.1836 93.8086 47.9102 93 48.4199C92.1973 48.9238 91.2715 49.1758 90.2227 49.1758C89.1855 49.1758 88.2598 48.9238 87.4453 48.4199C86.6367 47.9102 86.0098 47.1865 85.5645 46.249C85.125 45.3115 84.9023 44.2305 84.8965 43.0059V42.2852C84.8965 41.0371 85.1162 39.9355 85.5557 38.9805C86.001 38.0254 86.625 37.2959 87.4277 36.792C88.2363 36.2822 89.1621 36.0273 90.2051 36.0273C91.248 36.0273 92.1709 36.2793 92.9736 36.7832C93.7822 37.2812 94.4062 38.002 94.8457 38.9453C95.2852 39.8828 95.5078 40.9756 95.5137 42.2236V42.9355ZM93.29 42.2676C93.29 40.8496 93.0205 39.7627 92.4814 39.0068C91.9482 38.251 91.1895 37.873 90.2051 37.873C89.2441 37.873 88.4912 38.251 87.9463 39.0068C87.4072 39.7568 87.1318 40.8203 87.1201 42.1973V42.9355C87.1201 44.3418 87.3926 45.4287 87.9375 46.1963C88.4883 46.9639 89.25 47.3477 90.2227 47.3477C91.207 47.3477 91.9629 46.9727 92.4902 46.2227C93.0234 45.4727 93.29 44.377 93.29 42.9355V42.2676ZM99.9521 44.2451V49H97.7285V36.2031H102.624C104.054 36.2031 105.188 36.5752 106.025 37.3193C106.869 38.0635 107.291 39.0479 107.291 40.2725C107.291 41.5264 106.878 42.502 106.052 43.1992C105.231 43.8965 104.08 44.2451 102.598 44.2451H99.9521ZM99.9521 42.4609H102.624C103.415 42.4609 104.019 42.2764 104.435 41.9072C104.851 41.5322 105.059 40.9932 105.059 40.29C105.059 39.5986 104.848 39.0479 104.426 38.6377C104.004 38.2217 103.424 38.0078 102.686 37.9961H99.9521V42.4609ZM118.488 37.9961H114.498V49H112.292V37.9961H108.337V36.2031H118.488V37.9961ZM122.522 49H120.308V36.2031H122.522V49ZM135.469 42.9355C135.469 44.1895 135.252 45.291 134.818 46.2402C134.385 47.1836 133.764 47.9102 132.955 48.4199C132.152 48.9238 131.227 49.1758 130.178 49.1758C129.141 49.1758 128.215 48.9238 127.4 48.4199C126.592 47.9102 125.965 47.1865 125.52 46.249C125.08 45.3115 124.857 44.2305 124.852 43.0059V42.2852C124.852 41.0371 125.071 39.9355 125.511 38.9805C125.956 38.0254 126.58 37.2959 127.383 36.792C128.191 36.2822 129.117 36.0273 130.16 36.0273C131.203 36.0273 132.126 36.2793 132.929 36.7832C133.737 37.2812 134.361 38.002 134.801 38.9453C135.24 39.8828 135.463 40.9756 135.469 42.2236V42.9355ZM133.245 42.2676C133.245 40.8496 132.976 39.7627 132.437 39.0068C131.903 38.251 131.145 37.873 130.16 37.873C129.199 37.873 128.446 38.251 127.901 39.0068C127.362 39.7568 127.087 40.8203 127.075 42.1973V42.9355C127.075 44.3418 127.348 45.4287 127.893 46.1963C128.443 46.9639 129.205 47.3477 130.178 47.3477C131.162 47.3477 131.918 46.9727 132.445 46.2227C132.979 45.4727 133.245 44.377 133.245 42.9355V42.2676ZM147.835 49H145.611L139.907 39.9209V49H137.684V36.2031H139.907L145.629 45.3174V36.2031H147.835V49ZM157.169 47.2246H162.979V49H154.945V36.2031H157.169V47.2246ZM167.03 49H164.815V36.2031H167.03V49ZM176.452 45.7041C176.452 45.1416 176.253 44.708 175.854 44.4033C175.462 44.0986 174.75 43.791 173.719 43.4805C172.688 43.1699 171.867 42.8242 171.258 42.4434C170.092 41.7109 169.509 40.7559 169.509 39.5781C169.509 38.5469 169.928 37.6973 170.766 37.0293C171.609 36.3613 172.702 36.0273 174.044 36.0273C174.935 36.0273 175.729 36.1914 176.426 36.5195C177.123 36.8477 177.671 37.3164 178.069 37.9258C178.468 38.5293 178.667 39.2002 178.667 39.9385H176.452C176.452 39.2705 176.241 38.749 175.819 38.374C175.403 37.9932 174.806 37.8027 174.026 37.8027C173.3 37.8027 172.734 37.958 172.33 38.2686C171.932 38.5791 171.732 39.0127 171.732 39.5693C171.732 40.0381 171.949 40.4307 172.383 40.7471C172.816 41.0576 173.531 41.3623 174.527 41.6611C175.523 41.9541 176.323 42.291 176.927 42.6719C177.53 43.0469 177.973 43.4805 178.254 43.9727C178.535 44.459 178.676 45.0303 178.676 45.6865C178.676 46.7529 178.266 47.6025 177.445 48.2354C176.631 48.8623 175.523 49.1758 174.123 49.1758C173.197 49.1758 172.345 49.0059 171.565 48.666C170.792 48.3203 170.188 47.8457 169.755 47.2422C169.327 46.6387 169.113 45.9355 169.113 45.1328H171.337C171.337 45.8594 171.577 46.4219 172.058 46.8203C172.538 47.2188 173.227 47.418 174.123 47.418C174.896 47.418 175.477 47.2627 175.863 46.9521C176.256 46.6357 176.452 46.2197 176.452 45.7041ZM189.873 37.9961H185.883V49H183.677V37.9961H179.722V36.2031H189.873V37.9961Z" fill="#3B3B67"/>
<path d="M62.3271 26.6689V31.5824L69.3563 29.2535" fill="#3B3B67"/>
<path d="M62.2203 50.282C60.2197 50.282 58.2199 50.282 56.2194 50.282L56.1954 44.1807C56.0426 44.3238 54.9977 45.2708 53.5658 45.0887C52.2059 44.9159 50.8155 43.7656 50.8642 42.201C50.9137 40.6201 52.4044 39.5003 53.829 39.4762C55.1875 39.4535 56.079 40.4338 56.2201 40.5939C56.2201 38.5136 56.2201 36.4333 56.2201 34.353H72.8593V50.2813C70.8907 50.2813 68.9222 50.2813 66.9536 50.2813C67.0831 50.1163 67.9252 49.0085 67.5994 47.6032C67.299 46.3092 66.1159 45.2262 64.6586 45.1582C62.9947 45.0803 61.5476 46.3538 61.3592 47.8363C61.1949 49.1395 62.0639 50.112 62.2203 50.282Z" fill="#18AF6A"/>
<rect x="1" y="1" width="268" height="208" stroke="#B3B3B3" stroke-width="2"/>
</svg>
