<svg width="288" height="271" viewBox="0 0 288 271" fill="none" xmlns="http://www.w3.org/2000/svg">
<rect x="27" y="23" width="261" height="248" fill="#C4C4C4"/>
<path d="M22.6585 6.13672V12.5944L31.8505 9.53361" fill="#3B3B67"/>
<path d="M22.5188 37.1706C19.9027 37.1706 17.2875 37.1706 14.6714 37.1706L14.64 29.1517C14.4403 29.3398 13.0738 30.5844 11.2014 30.3452C9.42308 30.118 7.60484 28.6062 7.66856 26.5498C7.73322 24.472 9.68269 23.0003 11.5456 22.9686C13.322 22.9388 14.4879 24.2272 14.6724 24.4376C14.6724 21.7035 14.6724 18.9694 14.6724 16.2354H36.4313V37.1697C33.8571 37.1697 31.2828 37.1697 28.7086 37.1697C28.8778 36.9528 29.979 35.4968 29.553 33.6499C29.1603 31.9491 27.613 30.5258 25.7073 30.4364C23.5315 30.334 21.6391 32.0078 21.3928 33.9562C21.1779 35.669 22.3143 36.9472 22.5188 37.1706Z" fill="#18AF6A"/>
</svg>
